<svg viewBox="0 0 200 200" xmlns="http://www.w3.org/2000/svg">
  <style>
    @keyframes drawLine { to { stroke-dashoffset: 0; } }
    @keyframes popIn { from { transform: scale(0); opacity: 0; } to { transform: scale(1); opacity: 1; } }
    .bone {
      stroke: #4F8EF7;
      stroke-width: 5;
      stroke-linecap: round;
      fill: none;
      stroke-dasharray: 1;
      stroke-dashoffset: 1;
      animation: drawLine 0.4s ease forwards;
    }
    .joint {
      fill: #2C5FCC;
      transform-box: fill-box;
      transform-origin: center;
      opacity: 0;
      animation: popIn 0.25s ease forwards;
    }
    .label {
      font-family: -apple-system, "Segoe UI", sans-serif;
      font-size: 22px;
      font-weight: 700;
      fill: #222222;
      text-anchor: middle;
      opacity: 0;
      animation: popIn 0.3s ease forwards;
      animation-delay: 0.6s;
    }
  </style>
  <line pathLength="1" class="bone" x1="119.5" y1="121.7" x2="107.6" y2="119.0" style="animation-delay:0.000s;"/><line pathLength="1" class="bone" x1="121.0" y1="170.0" x2="123.2" y2="97.2" style="animation-delay:0.015s;"/><line pathLength="1" class="bone" x1="90.4" y1="123.8" x2="80.2" y2="104.1" style="animation-delay:0.030s;"/><line pathLength="1" class="bone" x1="121.0" y1="170.0" x2="90.4" y2="123.8" style="animation-delay:0.045s;"/><line pathLength="1" class="bone" x1="99.0" y1="108.5" x2="89.8" y2="79.7" style="animation-delay:0.060s;"/><line pathLength="1" class="bone" x1="99.0" y1="108.5" x2="90.4" y2="123.8" style="animation-delay:0.075s;"/><line pathLength="1" class="bone" x1="80.2" y1="104.1" x2="73.5" y2="90.9" style="animation-delay:0.090s;"/><line pathLength="1" class="bone" x1="123.2" y1="97.2" x2="122.9" y2="66.1" style="animation-delay:0.105s;"/><line pathLength="1" class="bone" x1="123.2" y1="97.2" x2="109.7" y2="99.4" style="animation-delay:0.120s;"/><line pathLength="1" class="bone" x1="89.8" y1="79.7" x2="84.5" y2="61.0" style="animation-delay:0.135s;"/><line pathLength="1" class="bone" x1="121.0" y1="170.0" x2="130.2" y2="152.7" style="animation-delay:0.150s;"/><line pathLength="1" class="bone" x1="109.7" y1="99.4" x2="104.4" y2="67.1" style="animation-delay:0.165s;"/><line pathLength="1" class="bone" x1="130.2" y1="152.7" x2="131.8" y2="132.1" style="animation-delay:0.180s;"/><line pathLength="1" class="bone" x1="109.7" y1="99.4" x2="99.0" y2="108.5" style="animation-delay:0.195s;"/><line pathLength="1" class="bone" x1="104.4" y1="67.1" x2="100.6" y2="46.7" style="animation-delay:0.210s;"/><line pathLength="1" class="bone" x1="73.5" y1="90.9" x2="68.2" y2="78.8" style="animation-delay:0.225s;"/><line pathLength="1" class="bone" x1="122.9" y1="66.1" x2="121.7" y2="46.0" style="animation-delay:0.240s;"/><line pathLength="1" class="bone" x1="84.5" y1="61.0" x2="80.5" y2="45.9" style="animation-delay:0.255s;"/><line pathLength="1" class="bone" x1="131.8" y1="132.1" x2="119.5" y2="121.7" style="animation-delay:0.270s;"/><line pathLength="1" class="bone" x1="100.6" y1="46.7" x2="97.3" y2="31.4" style="animation-delay:0.285s;"/><line pathLength="1" class="bone" x1="121.7" y1="46.0" x2="120.0" y2="30.0" style="animation-delay:0.300s;"/>
  <circle class="joint" cx="121.0" cy="170.0" r="7" style="animation-delay:0.300s;"/><circle class="joint" cx="130.2" cy="152.7" r="4.5" style="animation-delay:0.320s;"/><circle class="joint" cx="131.8" cy="132.1" r="4.5" style="animation-delay:0.340s;"/><circle class="joint" cx="119.5" cy="121.7" r="4.5" style="animation-delay:0.360s;"/><circle class="joint" cx="107.6" cy="119.0" r="7" style="animation-delay:0.380s;"/><circle class="joint" cx="123.2" cy="97.2" r="4.5" style="animation-delay:0.400s;"/><circle class="joint" cx="122.9" cy="66.1" r="4.5" style="animation-delay:0.420s;"/><circle class="joint" cx="121.7" cy="46.0" r="4.5" style="animation-delay:0.440s;"/><circle class="joint" cx="120.0" cy="30.0" r="7" style="animation-delay:0.460s;"/><circle class="joint" cx="109.7" cy="99.4" r="4.5" style="animation-delay:0.480s;"/><circle class="joint" cx="104.4" cy="67.1" r="4.5" style="animation-delay:0.500s;"/><circle class="joint" cx="100.6" cy="46.7" r="4.5" style="animation-delay:0.520s;"/><circle class="joint" cx="97.3" cy="31.4" r="7" style="animation-delay:0.540s;"/><circle class="joint" cx="99.0" cy="108.5" r="4.5" style="animation-delay:0.560s;"/><circle class="joint" cx="89.8" cy="79.7" r="4.5" style="animation-delay:0.580s;"/><circle class="joint" cx="84.5" cy="61.0" r="4.5" style="animation-delay:0.600s;"/><circle class="joint" cx="80.5" cy="45.9" r="7" style="animation-delay:0.620s;"/><circle class="joint" cx="90.4" cy="123.8" r="4.5" style="animation-delay:0.640s;"/><circle class="joint" cx="80.2" cy="104.1" r="4.5" style="animation-delay:0.660s;"/><circle class="joint" cx="73.5" cy="90.9" r="4.5" style="animation-delay:0.680s;"/><circle class="joint" cx="68.2" cy="78.8" r="7" style="animation-delay:0.700s;"/>
  <text class="label" x="100.0" y="192">4</text>
</svg>