<svg viewBox="0 0 200 200" xmlns="http://www.w3.org/2000/svg">
  <style>
    @keyframes drawLine { to { stroke-dashoffset: 0; } }
    @keyframes popIn { from { transform: scale(0); opacity: 0; } to { transform: scale(1); opacity: 1; } }
    .bone {
      stroke: #4F8EF7;
      stroke-width: 5;
      stroke-linecap: round;
      fill: none;
      stroke-dasharray: 1;
      stroke-dashoffset: 1;
      animation: drawLine 0.4s ease forwards;
    }
    .joint {
      fill: #2C5FCC;
      transform-box: fill-box;
      transform-origin: center;
      opacity: 0;
      animation: popIn 0.25s ease forwards;
    }
    .label {
      font-family: -apple-system, "Segoe UI", sans-serif;
      font-size: 22px;
      font-weight: 700;
      fill: #222222;
      text-anchor: middle;
      opacity: 0;
      animation: popIn 0.3s ease forwards;
      animation-delay: 0.6s;
    }
  </style>
  <line pathLength="1" class="bone" x1="119.0" y1="119.8" x2="112.3" y2="116.3" style="animation-delay:0.000s;"/><line pathLength="1" class="bone" x1="170.0" y1="139.5" x2="146.8" y2="69.0" style="animation-delay:0.015s;"/><line pathLength="1" class="bone" x1="145.0" y1="102.1" x2="119.1" y2="96.5" style="animation-delay:0.030s;"/><line pathLength="1" class="bone" x1="170.0" y1="139.5" x2="145.0" y2="102.1" style="animation-delay:0.045s;"/><line pathLength="1" class="bone" x1="148.5" y1="85.1" x2="116.4" y2="79.6" style="animation-delay:0.060s;"/><line pathLength="1" class="bone" x1="148.5" y1="85.1" x2="145.0" y2="102.1" style="animation-delay:0.075s;"/><line pathLength="1" class="bone" x1="119.1" y1="96.5" x2="109.4" y2="105.1" style="animation-delay:0.090s;"/><line pathLength="1" class="bone" x1="146.8" y1="69.0" x2="115.3" y2="64.8" style="animation-delay:0.105s;"/><line pathLength="1" class="bone" x1="146.8" y1="69.0" x2="149.2" y2="73.4" style="animation-delay:0.120s;"/><line pathLength="1" class="bone" x1="116.4" y1="79.6" x2="105.4" y2="95.3" style="animation-delay:0.135s;"/><line pathLength="1" class="bone" x1="170.0" y1="139.5" x2="144.9" y2="138.4" style="animation-delay:0.150s;"/><line pathLength="1" class="bone" x1="149.2" y1="73.4" x2="115.0" y2="68.2" style="animation-delay:0.165s;"/><line pathLength="1" class="bone" x1="144.9" y1="138.4" x2="129.8" y2="125.6" style="animation-delay:0.180s;"/><line pathLength="1" class="bone" x1="149.2" y1="73.4" x2="148.5" y2="85.1" style="animation-delay:0.195s;"/><line pathLength="1" class="bone" x1="115.0" y1="68.2" x2="103.3" y2="86.1" style="animation-delay:0.210s;"/><line pathLength="1" class="bone" x1="109.4" y1="105.1" x2="106.3" y2="115.4" style="animation-delay:0.225s;"/><line pathLength="1" class="bone" x1="115.3" y1="64.8" x2="103.1" y2="81.5" style="animation-delay:0.240s;"/><line pathLength="1" class="bone" x1="105.4" y1="95.3" x2="103.2" y2="109.6" style="animation-delay:0.255s;"/><line pathLength="1" class="bone" x1="129.8" y1="125.6" x2="119.0" y2="119.8" style="animation-delay:0.270s;"/><line pathLength="1" class="bone" x1="103.3" y1="86.1" x2="101.3" y2="101.3" style="animation-delay:0.285s;"/><line pathLength="1" class="bone" x1="103.1" y1="81.5" x2="100.6" y2="95.9" style="animation-delay:0.300s;"/><line pathLength="1" class="bone" x1="81.8" y1="99.0" x2="88.5" y2="91.6" style="animation-delay:0.315s;"/><line pathLength="1" class="bone" x1="30.0" y1="134.3" x2="49.1" y2="65.1" style="animation-delay:0.330s;"/><line pathLength="1" class="bone" x1="50.2" y1="97.0" x2="74.3" y2="92.2" style="animation-delay:0.345s;"/><line pathLength="1" class="bone" x1="30.0" y1="134.3" x2="50.2" y2="97.0" style="animation-delay:0.360s;"/><line pathLength="1" class="bone" x1="46.1" y1="81.2" x2="77.4" y2="77.2" style="animation-delay:0.375s;"/><line pathLength="1" class="bone" x1="46.1" y1="81.2" x2="50.2" y2="97.0" style="animation-delay:0.390s;"/><line pathLength="1" class="bone" x1="74.3" y1="92.2" x2="83.7" y2="100.9" style="animation-delay:0.405s;"/><line pathLength="1" class="bone" x1="49.1" y1="65.1" x2="78.8" y2="60.5" style="animation-delay:0.420s;"/><line pathLength="1" class="bone" x1="49.1" y1="65.1" x2="45.5" y2="69.9" style="animation-delay:0.435s;"/><line pathLength="1" class="bone" x1="77.4" y1="77.2" x2="89.0" y2="93.3" style="animation-delay:0.450s;"/><line pathLength="1" class="bone" x1="30.0" y1="134.3" x2="55.0" y2="125.2" style="animation-delay:0.465s;"/><line pathLength="1" class="bone" x1="45.5" y1="69.9" x2="78.4" y2="65.3" style="animation-delay:0.480s;"/><line pathLength="1" class="bone" x1="55.0" y1="125.2" x2="70.1" y2="109.0" style="animation-delay:0.495s;"/><line pathLength="1" class="bone" x1="45.5" y1="69.9" x2="46.1" y2="81.2" style="animation-delay:0.510s;"/><line pathLength="1" class="bone" x1="78.4" y1="65.3" x2="90.2" y2="84.2" style="animation-delay:0.525s;"/><line pathLength="1" class="bone" x1="83.7" y1="100.9" x2="86.5" y2="110.8" style="animation-delay:0.540s;"/><line pathLength="1" class="bone" x1="78.8" y1="60.5" x2="90.8" y2="78.4" style="animation-delay:0.555s;"/><line pathLength="1" class="bone" x1="89.0" y1="93.3" x2="91.2" y2="108.0" style="animation-delay:0.570s;"/><line pathLength="1" class="bone" x1="70.1" y1="109.0" x2="81.8" y2="99.0" style="animation-delay:0.585s;"/><line pathLength="1" class="bone" x1="90.2" y1="84.2" x2="93.2" y2="100.6" style="animation-delay:0.600s;"/><line pathLength="1" class="bone" x1="90.8" y1="78.4" x2="94.3" y2="95.1" style="animation-delay:0.615s;"/>
  <circle class="joint" cx="170.0" cy="139.5" r="7" style="animation-delay:0.300s;"/><circle class="joint" cx="144.9" cy="138.4" r="4.5" style="animation-delay:0.320s;"/><circle class="joint" cx="129.8" cy="125.6" r="4.5" style="animation-delay:0.340s;"/><circle class="joint" cx="119.0" cy="119.8" r="4.5" style="animation-delay:0.360s;"/><circle class="joint" cx="112.3" cy="116.3" r="7" style="animation-delay:0.380s;"/><circle class="joint" cx="146.8" cy="69.0" r="4.5" style="animation-delay:0.400s;"/><circle class="joint" cx="115.3" cy="64.8" r="4.5" style="animation-delay:0.420s;"/><circle class="joint" cx="103.1" cy="81.5" r="4.5" style="animation-delay:0.440s;"/><circle class="joint" cx="100.6" cy="95.9" r="7" style="animation-delay:0.460s;"/><circle class="joint" cx="149.2" cy="73.4" r="4.5" style="animation-delay:0.480s;"/><circle class="joint" cx="115.0" cy="68.2" r="4.5" style="animation-delay:0.500s;"/><circle class="joint" cx="103.3" cy="86.1" r="4.5" style="animation-delay:0.520s;"/><circle class="joint" cx="101.3" cy="101.3" r="7" style="animation-delay:0.540s;"/><circle class="joint" cx="148.5" cy="85.1" r="4.5" style="animation-delay:0.560s;"/><circle class="joint" cx="116.4" cy="79.6" r="4.5" style="animation-delay:0.580s;"/><circle class="joint" cx="105.4" cy="95.3" r="4.5" style="animation-delay:0.600s;"/><circle class="joint" cx="103.2" cy="109.6" r="7" style="animation-delay:0.620s;"/><circle class="joint" cx="145.0" cy="102.1" r="4.5" style="animation-delay:0.640s;"/><circle class="joint" cx="119.1" cy="96.5" r="4.5" style="animation-delay:0.660s;"/><circle class="joint" cx="109.4" cy="105.1" r="4.5" style="animation-delay:0.680s;"/><circle class="joint" cx="106.3" cy="115.4" r="7" style="animation-delay:0.700s;"/><circle class="joint" cx="30.0" cy="134.3" r="7" style="animation-delay:0.300s;"/><circle class="joint" cx="55.0" cy="125.2" r="4.5" style="animation-delay:0.320s;"/><circle class="joint" cx="70.1" cy="109.0" r="4.5" style="animation-delay:0.340s;"/><circle class="joint" cx="81.8" cy="99.0" r="4.5" style="animation-delay:0.360s;"/><circle class="joint" cx="88.5" cy="91.6" r="7" style="animation-delay:0.380s;"/><circle class="joint" cx="49.1" cy="65.1" r="4.5" style="animation-delay:0.400s;"/><circle class="joint" cx="78.8" cy="60.5" r="4.5" style="animation-delay:0.420s;"/><circle class="joint" cx="90.8" cy="78.4" r="4.5" style="animation-delay:0.440s;"/><circle class="joint" cx="94.3" cy="95.1" r="7" style="animation-delay:0.460s;"/><circle class="joint" cx="45.5" cy="69.9" r="4.5" style="animation-delay:0.480s;"/><circle class="joint" cx="78.4" cy="65.3" r="4.5" style="animation-delay:0.500s;"/><circle class="joint" cx="90.2" cy="84.2" r="4.5" style="animation-delay:0.520s;"/><circle class="joint" cx="93.2" cy="100.6" r="7" style="animation-delay:0.540s;"/><circle class="joint" cx="46.1" cy="81.2" r="4.5" style="animation-delay:0.560s;"/><circle class="joint" cx="77.4" cy="77.2" r="4.5" style="animation-delay:0.580s;"/><circle class="joint" cx="89.0" cy="93.3" r="4.5" style="animation-delay:0.600s;"/><circle class="joint" cx="91.2" cy="108.0" r="7" style="animation-delay:0.620s;"/><circle class="joint" cx="50.2" cy="97.0" r="4.5" style="animation-delay:0.640s;"/><circle class="joint" cx="74.3" cy="92.2" r="4.5" style="animation-delay:0.660s;"/><circle class="joint" cx="83.7" cy="100.9" r="4.5" style="animation-delay:0.680s;"/><circle class="joint" cx="86.5" cy="110.8" r="7" style="animation-delay:0.700s;"/>
  <text class="label" x="100.0" y="192">B</text>
</svg>