<svg viewBox="0 0 200 200" xmlns="http://www.w3.org/2000/svg">
  <style>
    @keyframes drawLine { to { stroke-dashoffset: 0; } }
    @keyframes popIn { from { transform: scale(0); opacity: 0; } to { transform: scale(1); opacity: 1; } }
    .bone {
      stroke: #4F8EF7;
      stroke-width: 5;
      stroke-linecap: round;
      fill: none;
      stroke-dasharray: 1;
      stroke-dashoffset: 1;
      animation: drawLine 0.4s ease forwards;
    }
    .joint {
      fill: #2C5FCC;
      transform-box: fill-box;
      transform-origin: center;
      opacity: 0;
      animation: popIn 0.25s ease forwards;
    }
    .label {
      font-family: -apple-system, "Segoe UI", sans-serif;
      font-size: 22px;
      font-weight: 700;
      fill: #222222;
      text-anchor: middle;
      opacity: 0;
      animation: popIn 0.3s ease forwards;
      animation-delay: 0.6s;
    }
  </style>
  <line pathLength="1" class="bone" x1="45.4" y1="44.6" x2="56.0" y2="31.1" style="animation-delay:0.000s;"/><line pathLength="1" class="bone" x1="33.6" y1="125.9" x2="68.6" y2="69.6" style="animation-delay:0.015s;"/><line pathLength="1" class="bone" x1="79.0" y1="121.5" x2="81.0" y2="120.7" style="animation-delay:0.030s;"/><line pathLength="1" class="bone" x1="33.6" y1="125.9" x2="79.0" y2="121.5" style="animation-delay:0.045s;"/><line pathLength="1" class="bone" x1="79.9" y1="105.0" x2="79.9" y2="104.4" style="animation-delay:0.060s;"/><line pathLength="1" class="bone" x1="79.9" y1="105.0" x2="79.0" y2="121.5" style="animation-delay:0.075s;"/><line pathLength="1" class="bone" x1="81.0" y1="120.7" x2="72.1" y2="122.4" style="animation-delay:0.090s;"/><line pathLength="1" class="bone" x1="68.6" y1="69.6" x2="88.8" y2="60.4" style="animation-delay:0.105s;"/><line pathLength="1" class="bone" x1="68.6" y1="69.6" x2="77.5" y2="86.1" style="animation-delay:0.120s;"/><line pathLength="1" class="bone" x1="79.9" y1="104.4" x2="70.9" y2="106.6" style="animation-delay:0.135s;"/><line pathLength="1" class="bone" x1="33.6" y1="125.9" x2="30.0" y2="91.3" style="animation-delay:0.150s;"/><line pathLength="1" class="bone" x1="77.5" y1="86.1" x2="78.9" y2="89.1" style="animation-delay:0.165s;"/><line pathLength="1" class="bone" x1="30.0" y1="91.3" x2="36.9" y2="65.1" style="animation-delay:0.180s;"/><line pathLength="1" class="bone" x1="77.5" y1="86.1" x2="79.9" y2="105.0" style="animation-delay:0.195s;"/><line pathLength="1" class="bone" x1="78.9" y1="89.1" x2="69.7" y2="90.4" style="animation-delay:0.210s;"/><line pathLength="1" class="bone" x1="72.1" y1="122.4" x2="64.5" y2="124.4" style="animation-delay:0.225s;"/><line pathLength="1" class="bone" x1="88.8" y1="60.4" x2="102.1" y2="56.6" style="animation-delay:0.240s;"/><line pathLength="1" class="bone" x1="70.9" y1="106.6" x2="63.2" y2="108.3" style="animation-delay:0.255s;"/><line pathLength="1" class="bone" x1="36.9" y1="65.1" x2="45.4" y2="44.6" style="animation-delay:0.270s;"/><line pathLength="1" class="bone" x1="69.7" y1="90.4" x2="61.6" y2="92.2" style="animation-delay:0.285s;"/><line pathLength="1" class="bone" x1="102.1" y1="56.6" x2="112.2" y2="55.8" style="animation-delay:0.300s;"/><line pathLength="1" class="bone" x1="98.6" y1="96.6" x2="93.2" y2="84.7" style="animation-delay:0.315s;"/><line pathLength="1" class="bone" x1="118.1" y1="143.2" x2="129.9" y2="116.1" style="animation-delay:0.330s;"/><line pathLength="1" class="bone" x1="131.6" y1="147.5" x2="123.6" y2="158.6" style="animation-delay:0.345s;"/><line pathLength="1" class="bone" x1="118.1" y1="143.2" x2="131.6" y2="147.5" style="animation-delay:0.360s;"/><line pathLength="1" class="bone" x1="135.0" y1="139.2" x2="126.6" y2="152.5" style="animation-delay:0.375s;"/><line pathLength="1" class="bone" x1="135.0" y1="139.2" x2="131.6" y2="147.5" style="animation-delay:0.390s;"/><line pathLength="1" class="bone" x1="123.6" y1="158.6" x2="112.5" y2="164.3" style="animation-delay:0.405s;"/><line pathLength="1" class="bone" x1="129.9" y1="116.1" x2="149.3" y2="105.8" style="animation-delay:0.420s;"/><line pathLength="1" class="bone" x1="129.9" y1="116.1" x2="134.7" y2="128.2" style="animation-delay:0.435s;"/><line pathLength="1" class="bone" x1="126.6" y1="152.5" x2="117.1" y2="163.2" style="animation-delay:0.450s;"/><line pathLength="1" class="bone" x1="118.1" y1="143.2" x2="108.2" y2="126.7" style="animation-delay:0.465s;"/><line pathLength="1" class="bone" x1="134.7" y1="128.2" x2="139.1" y2="130.6" style="animation-delay:0.480s;"/><line pathLength="1" class="bone" x1="108.2" y1="126.7" x2="104.1" y2="110.2" style="animation-delay:0.495s;"/><line pathLength="1" class="bone" x1="134.7" y1="128.2" x2="135.0" y2="139.2" style="animation-delay:0.510s;"/><line pathLength="1" class="bone" x1="139.1" y1="130.6" x2="137.3" y2="128.9" style="animation-delay:0.525s;"/><line pathLength="1" class="bone" x1="112.5" y1="164.3" x2="102.4" y2="166.7" style="animation-delay:0.540s;"/><line pathLength="1" class="bone" x1="149.3" y1="105.8" x2="160.0" y2="100.6" style="animation-delay:0.555s;"/><line pathLength="1" class="bone" x1="117.1" y1="163.2" x2="109.1" y2="168.9" style="animation-delay:0.570s;"/><line pathLength="1" class="bone" x1="104.1" y1="110.2" x2="98.6" y2="96.6" style="animation-delay:0.585s;"/><line pathLength="1" class="bone" x1="137.3" y1="128.9" x2="135.4" y2="125.2" style="animation-delay:0.600s;"/><line pathLength="1" class="bone" x1="160.0" y1="100.6" x2="170.0" y2="94.5" style="animation-delay:0.615s;"/>
  <circle class="joint" cx="33.6" cy="125.9" r="7" style="animation-delay:0.300s;"/><circle class="joint" cx="30.0" cy="91.3" r="4.5" style="animation-delay:0.320s;"/><circle class="joint" cx="36.9" cy="65.1" r="4.5" style="animation-delay:0.340s;"/><circle class="joint" cx="45.4" cy="44.6" r="4.5" style="animation-delay:0.360s;"/><circle class="joint" cx="56.0" cy="31.1" r="7" style="animation-delay:0.380s;"/><circle class="joint" cx="68.6" cy="69.6" r="4.5" style="animation-delay:0.400s;"/><circle class="joint" cx="88.8" cy="60.4" r="4.5" style="animation-delay:0.420s;"/><circle class="joint" cx="102.1" cy="56.6" r="4.5" style="animation-delay:0.440s;"/><circle class="joint" cx="112.2" cy="55.8" r="7" style="animation-delay:0.460s;"/><circle class="joint" cx="77.5" cy="86.1" r="4.5" style="animation-delay:0.480s;"/><circle class="joint" cx="78.9" cy="89.1" r="4.5" style="animation-delay:0.500s;"/><circle class="joint" cx="69.7" cy="90.4" r="4.5" style="animation-delay:0.520s;"/><circle class="joint" cx="61.6" cy="92.2" r="7" style="animation-delay:0.540s;"/><circle class="joint" cx="79.9" cy="105.0" r="4.5" style="animation-delay:0.560s;"/><circle class="joint" cx="79.9" cy="104.4" r="4.5" style="animation-delay:0.580s;"/><circle class="joint" cx="70.9" cy="106.6" r="4.5" style="animation-delay:0.600s;"/><circle class="joint" cx="63.2" cy="108.3" r="7" style="animation-delay:0.620s;"/><circle class="joint" cx="79.0" cy="121.5" r="4.5" style="animation-delay:0.640s;"/><circle class="joint" cx="81.0" cy="120.7" r="4.5" style="animation-delay:0.660s;"/><circle class="joint" cx="72.1" cy="122.4" r="4.5" style="animation-delay:0.680s;"/><circle class="joint" cx="64.5" cy="124.4" r="7" style="animation-delay:0.700s;"/><circle class="joint" cx="118.1" cy="143.2" r="7" style="animation-delay:0.300s;"/><circle class="joint" cx="108.2" cy="126.7" r="4.5" style="animation-delay:0.320s;"/><circle class="joint" cx="104.1" cy="110.2" r="4.5" style="animation-delay:0.340s;"/><circle class="joint" cx="98.6" cy="96.6" r="4.5" style="animation-delay:0.360s;"/><circle class="joint" cx="93.2" cy="84.7" r="7" style="animation-delay:0.380s;"/><circle class="joint" cx="129.9" cy="116.1" r="4.5" style="animation-delay:0.400s;"/><circle class="joint" cx="149.3" cy="105.8" r="4.5" style="animation-delay:0.420s;"/><circle class="joint" cx="160.0" cy="100.6" r="4.5" style="animation-delay:0.440s;"/><circle class="joint" cx="170.0" cy="94.5" r="7" style="animation-delay:0.460s;"/><circle class="joint" cx="134.7" cy="128.2" r="4.5" style="animation-delay:0.480s;"/><circle class="joint" cx="139.1" cy="130.6" r="4.5" style="animation-delay:0.500s;"/><circle class="joint" cx="137.3" cy="128.9" r="4.5" style="animation-delay:0.520s;"/><circle class="joint" cx="135.4" cy="125.2" r="7" style="animation-delay:0.540s;"/><circle class="joint" cx="135.0" cy="139.2" r="4.5" style="animation-delay:0.560s;"/><circle class="joint" cx="126.6" cy="152.5" r="4.5" style="animation-delay:0.580s;"/><circle class="joint" cx="117.1" cy="163.2" r="4.5" style="animation-delay:0.600s;"/><circle class="joint" cx="109.1" cy="168.9" r="7" style="animation-delay:0.620s;"/><circle class="joint" cx="131.6" cy="147.5" r="4.5" style="animation-delay:0.640s;"/><circle class="joint" cx="123.6" cy="158.6" r="4.5" style="animation-delay:0.660s;"/><circle class="joint" cx="112.5" cy="164.3" r="4.5" style="animation-delay:0.680s;"/><circle class="joint" cx="102.4" cy="166.7" r="7" style="animation-delay:0.700s;"/>
  <text class="label" x="100.0" y="192">J</text>
</svg>