<svg viewBox="0 0 200 200" xmlns="http://www.w3.org/2000/svg">
  <style>
    @keyframes drawLine { to { stroke-dashoffset: 0; } }
    @keyframes popIn { from { transform: scale(0); opacity: 0; } to { transform: scale(1); opacity: 1; } }
    .bone {
      stroke: #4F8EF7;
      stroke-width: 5;
      stroke-linecap: round;
      fill: none;
      stroke-dasharray: 1;
      stroke-dashoffset: 1;
      animation: drawLine 0.4s ease forwards;
    }
    .joint {
      fill: #2C5FCC;
      transform-box: fill-box;
      transform-origin: center;
      opacity: 0;
      animation: popIn 0.25s ease forwards;
    }
    .label {
      font-family: -apple-system, "Segoe UI", sans-serif;
      font-size: 22px;
      font-weight: 700;
      fill: #222222;
      text-anchor: middle;
      opacity: 0;
      animation: popIn 0.3s ease forwards;
      animation-delay: 0.6s;
    }
  </style>
  <line pathLength="1" class="bone" x1="91.0" y1="63.2" x2="101.5" y2="52.7" style="animation-delay:0.000s;"/><line pathLength="1" class="bone" x1="41.3" y1="104.2" x2="57.7" y2="33.8" style="animation-delay:0.015s;"/><line pathLength="1" class="bone" x1="52.4" y1="50.7" x2="73.8" y2="56.6" style="animation-delay:0.030s;"/><line pathLength="1" class="bone" x1="41.3" y1="104.2" x2="52.4" y2="50.7" style="animation-delay:0.045s;"/><line pathLength="1" class="bone" x1="51.2" y1="40.4" x2="79.0" y2="47.8" style="animation-delay:0.060s;"/><line pathLength="1" class="bone" x1="51.2" y1="40.4" x2="52.4" y2="50.7" style="animation-delay:0.075s;"/><line pathLength="1" class="bone" x1="73.8" y1="56.6" x2="69.7" y2="68.7" style="animation-delay:0.090s;"/><line pathLength="1" class="bone" x1="57.7" y1="33.8" x2="81.5" y2="30.0" style="animation-delay:0.105s;"/><line pathLength="1" class="bone" x1="57.7" y1="33.8" x2="52.5" y2="34.5" style="animation-delay:0.120s;"/><line pathLength="1" class="bone" x1="79.0" y1="47.8" x2="74.7" y2="63.7" style="animation-delay:0.135s;"/><line pathLength="1" class="bone" x1="41.3" y1="104.2" x2="64.2" y2="91.5" style="animation-delay:0.150s;"/><line pathLength="1" class="bone" x1="52.5" y1="34.5" x2="82.5" y2="40.1" style="animation-delay:0.165s;"/><line pathLength="1" class="bone" x1="64.2" y1="91.5" x2="79.1" y2="73.8" style="animation-delay:0.180s;"/><line pathLength="1" class="bone" x1="52.5" y1="34.5" x2="51.2" y2="40.4" style="animation-delay:0.195s;"/><line pathLength="1" class="bone" x1="82.5" y1="40.1" x2="79.2" y2="57.8" style="animation-delay:0.210s;"/><line pathLength="1" class="bone" x1="69.7" y1="68.7" x2="62.2" y2="72.3" style="animation-delay:0.225s;"/><line pathLength="1" class="bone" x1="81.5" y1="30.0" x2="95.6" y2="36.7" style="animation-delay:0.240s;"/><line pathLength="1" class="bone" x1="74.7" y1="63.7" x2="67.3" y2="68.9" style="animation-delay:0.255s;"/><line pathLength="1" class="bone" x1="79.1" y1="73.8" x2="91.0" y2="63.2" style="animation-delay:0.270s;"/><line pathLength="1" class="bone" x1="79.2" y1="57.8" x2="71.7" y2="65.0" style="animation-delay:0.285s;"/><line pathLength="1" class="bone" x1="95.6" y1="36.7" x2="106.0" y2="44.3" style="animation-delay:0.300s;"/><line pathLength="1" class="bone" x1="99.3" y1="145.6" x2="84.3" y2="146.9" style="animation-delay:0.315s;"/><line pathLength="1" class="bone" x1="158.7" y1="170.0" x2="129.4" y2="110.5" style="animation-delay:0.330s;"/><line pathLength="1" class="bone" x1="141.0" y1="148.7" x2="117.1" y2="156.9" style="animation-delay:0.345s;"/><line pathLength="1" class="bone" x1="158.7" y1="170.0" x2="141.0" y2="148.7" style="animation-delay:0.360s;"/><line pathLength="1" class="bone" x1="139.0" y1="133.0" x2="110.1" y2="146.4" style="animation-delay:0.375s;"/><line pathLength="1" class="bone" x1="139.0" y1="133.0" x2="141.0" y2="148.7" style="animation-delay:0.390s;"/><line pathLength="1" class="bone" x1="117.1" y1="156.9" x2="116.9" y2="166.5" style="animation-delay:0.405s;"/><line pathLength="1" class="bone" x1="129.4" y1="110.5" x2="119.3" y2="87.6" style="animation-delay:0.420s;"/><line pathLength="1" class="bone" x1="129.4" y1="110.5" x2="135.6" y2="118.5" style="animation-delay:0.435s;"/><line pathLength="1" class="bone" x1="110.1" y1="146.4" x2="110.9" y2="160.0" style="animation-delay:0.450s;"/><line pathLength="1" class="bone" x1="158.7" y1="170.0" x2="136.8" y2="157.8" style="animation-delay:0.465s;"/><line pathLength="1" class="bone" x1="135.6" y1="118.5" x2="105.5" y2="126.4" style="animation-delay:0.480s;"/><line pathLength="1" class="bone" x1="136.8" y1="157.8" x2="117.3" y2="145.4" style="animation-delay:0.495s;"/><line pathLength="1" class="bone" x1="135.6" y1="118.5" x2="139.0" y2="133.0" style="animation-delay:0.510s;"/><line pathLength="1" class="bone" x1="105.5" y1="126.4" x2="99.8" y2="144.5" style="animation-delay:0.525s;"/><line pathLength="1" class="bone" x1="116.9" y1="166.5" x2="121.9" y2="169.1" style="animation-delay:0.540s;"/><line pathLength="1" class="bone" x1="119.3" y1="87.6" x2="114.1" y2="69.0" style="animation-delay:0.555s;"/><line pathLength="1" class="bone" x1="110.9" y1="160.0" x2="116.8" y2="165.1" style="animation-delay:0.570s;"/><line pathLength="1" class="bone" x1="117.3" y1="145.4" x2="99.3" y2="145.6" style="animation-delay:0.585s;"/><line pathLength="1" class="bone" x1="99.8" y1="144.5" x2="101.9" y2="155.5" style="animation-delay:0.600s;"/><line pathLength="1" class="bone" x1="114.1" y1="69.0" x2="111.1" y2="53.3" style="animation-delay:0.615s;"/>
  <circle class="joint" cx="41.3" cy="104.2" r="7" style="animation-delay:0.300s;"/><circle class="joint" cx="64.2" cy="91.5" r="4.5" style="animation-delay:0.320s;"/><circle class="joint" cx="79.1" cy="73.8" r="4.5" style="animation-delay:0.340s;"/><circle class="joint" cx="91.0" cy="63.2" r="4.5" style="animation-delay:0.360s;"/><circle class="joint" cx="101.5" cy="52.7" r="7" style="animation-delay:0.380s;"/><circle class="joint" cx="57.7" cy="33.8" r="4.5" style="animation-delay:0.400s;"/><circle class="joint" cx="81.5" cy="30.0" r="4.5" style="animation-delay:0.420s;"/><circle class="joint" cx="95.6" cy="36.7" r="4.5" style="animation-delay:0.440s;"/><circle class="joint" cx="106.0" cy="44.3" r="7" style="animation-delay:0.460s;"/><circle class="joint" cx="52.5" cy="34.5" r="4.5" style="animation-delay:0.480s;"/><circle class="joint" cx="82.5" cy="40.1" r="4.5" style="animation-delay:0.500s;"/><circle class="joint" cx="79.2" cy="57.8" r="4.5" style="animation-delay:0.520s;"/><circle class="joint" cx="71.7" cy="65.0" r="7" style="animation-delay:0.540s;"/><circle class="joint" cx="51.2" cy="40.4" r="4.5" style="animation-delay:0.560s;"/><circle class="joint" cx="79.0" cy="47.8" r="4.5" style="animation-delay:0.580s;"/><circle class="joint" cx="74.7" cy="63.7" r="4.5" style="animation-delay:0.600s;"/><circle class="joint" cx="67.3" cy="68.9" r="7" style="animation-delay:0.620s;"/><circle class="joint" cx="52.4" cy="50.7" r="4.5" style="animation-delay:0.640s;"/><circle class="joint" cx="73.8" cy="56.6" r="4.5" style="animation-delay:0.660s;"/><circle class="joint" cx="69.7" cy="68.7" r="4.5" style="animation-delay:0.680s;"/><circle class="joint" cx="62.2" cy="72.3" r="7" style="animation-delay:0.700s;"/><circle class="joint" cx="158.7" cy="170.0" r="7" style="animation-delay:0.300s;"/><circle class="joint" cx="136.8" cy="157.8" r="4.5" style="animation-delay:0.320s;"/><circle class="joint" cx="117.3" cy="145.4" r="4.5" style="animation-delay:0.340s;"/><circle class="joint" cx="99.3" cy="145.6" r="4.5" style="animation-delay:0.360s;"/><circle class="joint" cx="84.3" cy="146.9" r="7" style="animation-delay:0.380s;"/><circle class="joint" cx="129.4" cy="110.5" r="4.5" style="animation-delay:0.400s;"/><circle class="joint" cx="119.3" cy="87.6" r="4.5" style="animation-delay:0.420s;"/><circle class="joint" cx="114.1" cy="69.0" r="4.5" style="animation-delay:0.440s;"/><circle class="joint" cx="111.1" cy="53.3" r="7" style="animation-delay:0.460s;"/><circle class="joint" cx="135.6" cy="118.5" r="4.5" style="animation-delay:0.480s;"/><circle class="joint" cx="105.5" cy="126.4" r="4.5" style="animation-delay:0.500s;"/><circle class="joint" cx="99.8" cy="144.5" r="4.5" style="animation-delay:0.520s;"/><circle class="joint" cx="101.9" cy="155.5" r="7" style="animation-delay:0.540s;"/><circle class="joint" cx="139.0" cy="133.0" r="4.5" style="animation-delay:0.560s;"/><circle class="joint" cx="110.1" cy="146.4" r="4.5" style="animation-delay:0.580s;"/><circle class="joint" cx="110.9" cy="160.0" r="4.5" style="animation-delay:0.600s;"/><circle class="joint" cx="116.8" cy="165.1" r="7" style="animation-delay:0.620s;"/><circle class="joint" cx="141.0" cy="148.7" r="4.5" style="animation-delay:0.640s;"/><circle class="joint" cx="117.1" cy="156.9" r="4.5" style="animation-delay:0.660s;"/><circle class="joint" cx="116.9" cy="166.5" r="4.5" style="animation-delay:0.680s;"/><circle class="joint" cx="121.9" cy="169.1" r="7" style="animation-delay:0.700s;"/>
  <text class="label" x="100.0" y="192">P</text>
</svg>